<?xml version="1.0" encoding="utf-8"?>
<!-- Generator: Adobe Illustrator 21.0.2, SVG Export Plug-In . SVG Version: 6.00 Build 0)  -->
<svg version="1.1" id="Layer_1" xmlns="http://www.w3.org/2000/svg" xmlns:xlink="http://www.w3.org/1999/xlink" x="0px" y="0px"
	 viewBox="0 0 17 12" style="enable-background:new 0 0 17 12;" xml:space="preserve">
<style type="text/css">
	.st0{fill:#fff;}
</style>
<path id="ic_tick" class="st0" d="M16.5,1.8l-9.9,9.7c-0.2,0.2-0.4,0.2-0.6,0c0,0,0,0,0,0L0.5,6.1C0.3,6,0.3,5.7,0.5,5.6
	c0,0,0,0,0,0l0.9-0.8c0.2-0.2,0.4-0.2,0.6,0c0,0,0,0,0,0L6.3,9l8.8-8.5c0.2-0.2,0.4-0.2,0.6,0c0,0,0,0,0,0l0.9,0.8
	C16.7,1.4,16.7,1.7,16.5,1.8C16.5,1.8,16.5,1.8,16.5,1.8z M6.3,12c-0.2,0-0.4-0.1-0.5-0.2L0.2,6.4c-0.3-0.3-0.3-0.7,0-1c0,0,0,0,0,0
	l0.9-0.8c0.3-0.3,0.8-0.3,1.1,0l4.1,4l8.5-8.3c0.3-0.3,0.8-0.3,1.1,0L16.8,1c0.3,0.3,0.3,0.7,0,1c0,0,0,0,0,0l-9.9,9.7
	C6.7,11.9,6.5,12,6.3,12z M1.6,4.9C1.6,4.9,1.6,4.9,1.6,4.9L0.7,5.8c0,0,0,0,0,0c0,0,0,0,0,0l5.5,5.4c0,0,0,0,0.1,0c0,0,0,0,0,0
	l9.9-9.7c0,0,0,0,0,0c0,0,0,0,0,0l-0.9-0.8c0,0,0,0-0.1,0c0,0,0,0,0,0l-9,8.8L1.6,4.9C1.7,4.9,1.7,4.9,1.6,4.9z"/>
</svg>
