<?xml version="1.0" encoding="utf-8"?>
<!-- Generator: Adobe Illustrator 19.1.0, SVG Export Plug-In . SVG Version: 6.00 Build 0)  -->
<svg version="1.1" id="Capa_1" xmlns="http://www.w3.org/2000/svg" xmlns:xlink="http://www.w3.org/1999/xlink" x="0px" y="0px"
	 viewBox="0 0 425.2 425.2" style="enable-background:new 0 0 425.2 425.2;" xml:space="preserve">
<style type="text/css">
	.st0{display:none;fill:#FFFFFF;}
	.st1{fill:#BCBEC0;}
	.st2{fill:#FFFFFF;}
	.st3{fill:#65BEBD;}
	.st4{fill:#7B2600;}
	.st5{fill:#F5B78C;}
	.st6{fill:#E6AC84;}
	.st7{fill:#DEA680;}
	.st8{fill:#D5D7D8;}
	.st9{fill:#B8BABC;}
	.st10{fill:#CD4B22;}
	.st11{fill:#D1D3D4;}
	.st12{fill:none;stroke:#BCBEC0;stroke-width:0.6648;stroke-miterlimit:10;}
	.st13{fill:#00B9C5;}
	.st14{fill:#3C2415;}
	.st15{fill:#EF4136;}
	.st16{fill:#B22E25;}
	.st17{fill:#A7A9AC;}
	.st18{fill:#C4C6C8;}
	.st19{fill:#002B38;}
	.st20{display:none;}
	.st21{display:inline;}
	.st22{fill:#D83633;}
	.st23{display:inline;fill:none;stroke:#FFFFFF;stroke-width:4.5832;stroke-miterlimit:10;}
	.st24{fill:#4B5664;}
	.st25{fill:#AFB1B4;}
	.st26{fill:none;stroke:#BCBEC0;stroke-width:4.5607;stroke-miterlimit:10;}
	.st27{fill:#38424E;}
	.st28{fill:#939598;}
	.st29{fill:#E6E7E8;}
	.st30{fill:#313B46;}
</style>
<rect x="0" y="0" class="st0" width="425.2" height="425.2"/>
<g>
	<g>
		
			<rect x="103.1" y="86.6" transform="matrix(0.1663 -0.9861 0.9861 0.1663 7.2495 343.1872)" class="st1" width="206.9" height="161.5"/>
		<g>
			
				<rect x="134.7" y="56.4" transform="matrix(0.9861 0.1663 -0.1663 0.9861 29.5876 -33.5928)" class="st2" width="161.5" height="206.9"/>
			<g>
				
					<rect x="155" y="63.3" transform="matrix(0.9861 0.1663 -0.1663 0.9861 20.4203 -29.7657)" class="st3" width="66" height="87.6"/>
				<g>
					<g>
						<path class="st4" d="M170.6,110.2c-0.1,0.4-0.9,22.3-0.9,22.3l26.2,3.5l7-18.7L170.6,110.2z"/>
						<g>
							<path class="st5" d="M202.3,104.3c0,0,2.7-2.7,4.2-1.1c0,0,0.9,1.3-0.3,3.9c-0.2,0.5-0.4,1-0.6,1.4c-0.1,0.4-0.3,0.8-0.4,1.2
								c-0.1,0.4,0,0.9-0.2,1.3c-0.4,0.8-0.9,1.6-1.7,2c-0.4,0.2-0.7,0.3-1.1,0.2c-0.2,0-1.4-0.4-1.4-0.5L202.3,104.3z"/>
							<path class="st6" d="M202.1,105.2c0,0,2.1-2.2,3.4-0.9c0,0,0.7,1-0.2,3.1c-0.2,0.4-0.3,0.8-0.5,1.2c-0.1,0.3-0.2,0.6-0.3,0.9
								c-0.1,0.3,0,0.7-0.2,1c-0.3,0.6-0.7,1.3-1.4,1.6c-0.3,0.1-0.6,0.2-0.9,0.2c-0.1,0-1.1-0.3-1.1-0.4L202.1,105.2z"/>
						</g>
						<g>
							<path class="st5" d="M172.5,99.6c0,0-1.6-3.4-3.6-2.4c0,0-1.3,0.9-1,3.8c0,0.5,0.1,1,0.1,1.6c0,0.4,0,0.8,0,1.2
								c0,0.4-0.2,0.8-0.2,1.3c0.1,0.9,0.3,1.8,1,2.5c0.3,0.3,0.6,0.5,1,0.6c0.2,0,1.4,0.1,1.5-0.1L172.5,99.6z"/>
							<path class="st6" d="M172.4,100.5c0,0-1.3-2.7-2.9-1.9c0,0-1,0.7-0.8,3c0,0.4,0.1,0.8,0.1,1.3c0,0.3,0,0.7,0,1
								c0,0.3-0.2,0.7-0.2,1c0.1,0.7,0.3,1.5,0.8,2c0.2,0.2,0.5,0.4,0.8,0.5c0.1,0,1.2,0.1,1.2-0.1L172.4,100.5z"/>
						</g>
						<path class="st5" d="M176.4,121.3c0,0,0.5,7.4-3.6,10.1l19.9,3.4c0,0-3.2-6.3,0-11.5L176.4,121.3z"/>
						<path class="st7" d="M175.8,126.5c0.6,0.7,1.4,1.2,2.2,1.7c15.4,9.1,1.3,2.1,6.3,1.7c2.1-0.2,4.4-1.1,5.9-2.7
							c0.7-0.8,1.2-1.6,1.8-2.5c0.2-0.5,0.4-1,0.7-1.5l-16.3-1.9C176.4,121.3,176.5,123.9,175.8,126.5z"/>
						<path class="st5" d="M204.6,100.7c2-12-3.9-23-13.1-24.5c-9.3-1.6-18.4,6.9-20.4,18.9c-1,5.8-2.1,10.6-0.1,16.2
							c1.8,5,4.3,9,8.2,13.1c0,0,3.8,4.1,8.9,2c4.8-3,10.6-6.9,13.4-12.2C203.6,110.2,203.8,105.2,204.6,100.7z"/>
						<path class="st5" d="M207.7,140.7l-15.6-7.5l-8.4-2l0,0l-0.2,0l-0.2,0l0,0l-8.6-0.8l-17.2,2c0,0-9.2,2-9.3,12.5l32.7,5.5
							l-0.6-0.1l32.7,5.5C215.7,145.6,207.7,140.7,207.7,140.7z"/>
						<g>
							
								<rect x="170.5" y="141.3" transform="matrix(0.9861 0.1663 -0.1663 0.9861 26.7401 -27.994)" class="st3" width="20.2" height="8.9"/>
							<path class="st2" d="M179.8,150.1c-14-8.8-6.4-19.7-6.4-19.7l-15.8,1.8c0,0-9.2,2-9.3,12.5l32.7,5.5l-0.6-0.1l32.7,5.5
								c2.5-10.1-5.6-15-5.6-15l-14.9-7.2C192.7,133.5,194,146.5,179.8,150.1z"/>
							<g>
								<g>
									<path class="st8" d="M175.7,127.1c0,0-0.9,2.6-1.8,3.3c0,0-4.2,8.6,5.9,19.7c0,0-22.5-10.8-10-20.5
										C169.8,129.6,175.6,125.8,175.7,127.1z"/>
								</g>
								<g>
									<g>
										<g>
											<path class="st9" d="M179.8,150.1c-1.1-0.5-2.1-1-3.2-1.6c-1-0.6-2-1.2-3-1.9c-2-1.3-3.8-2.8-5.4-4.7
												c-0.4-0.5-0.7-0.9-1.1-1.4c-0.3-0.5-0.6-1-0.9-1.6c-0.5-1.1-0.7-2.4-0.6-3.6c0.1-0.6,0.2-1.2,0.5-1.8
												c0.1-0.3,0.2-0.6,0.4-0.8c0.2-0.3,0.3-0.5,0.5-0.8l0.6-0.7l0.6-0.6c0.4-0.4,0.9-0.8,1.4-1.2l0,0l0,0
												c1-0.6,1.9-1.2,2.9-1.7c0.5-0.3,1-0.5,1.5-0.7c0.3-0.1,0.5-0.2,0.8-0.2c0.1,0,0.3,0,0.4,0c0.1,0,0.3,0.1,0.3,0.3
												c0-0.2-0.1-0.2-0.3-0.2c-0.1,0-0.3,0-0.4,0.1c-0.3,0.1-0.5,0.2-0.8,0.3c-0.5,0.2-1,0.5-1.5,0.8c-1,0.6-1.9,1.2-2.8,1.8
												l0,0c-0.4,0.4-0.9,0.7-1.3,1.2l-0.6,0.6l-0.5,0.7c-0.2,0.2-0.3,0.5-0.4,0.7c-0.1,0.2-0.3,0.5-0.4,0.8
												c-0.2,0.5-0.3,1.1-0.4,1.6c-0.1,1.1,0.1,2.2,0.6,3.3c0.2,0.5,0.5,1,0.8,1.5c0.3,0.5,0.6,0.9,1,1.4
												c0.7,0.9,1.6,1.7,2.4,2.5c0.9,0.8,1.8,1.5,2.7,2.2C175.8,147.7,177.8,148.9,179.8,150.1z"/>
										</g>
									</g>
								</g>
							</g>
							<g>
								<g>
									<path class="st8" d="M191.4,129.7c0,0,0,2.8,0.6,3.7c0,0,1.1,9.5-12,16.7c0,0,24.9-2.9,16.2-16
										C196.1,134.1,191.9,128.5,191.4,129.7z"/>
								</g>
								<g>
									<g>
										<g>
											<path class="st9" d="M180,150.1c2.3-0.4,4.6-1,6.8-1.7c1.1-0.4,2.2-0.8,3.3-1.2c1.1-0.4,2.1-1,3.1-1.6
												c0.5-0.3,1-0.6,1.4-1c0.4-0.4,0.9-0.7,1.2-1.2c0.8-0.8,1.4-1.8,1.6-2.9c0.1-0.5,0.2-1.1,0.2-1.7c0-0.3,0-0.6-0.1-0.8
												c-0.1-0.3-0.1-0.6-0.2-0.8l-0.3-0.8l-0.3-0.8c-0.2-0.5-0.6-1-0.8-1.5l0,0c-0.7-0.9-1.4-1.8-2.1-2.6
												c-0.4-0.4-0.7-0.8-1.1-1.2c-0.2-0.2-0.4-0.4-0.6-0.5c-0.1-0.1-0.2-0.2-0.4-0.2c-0.1,0-0.3,0-0.3,0.1
												c0-0.1,0.2-0.2,0.4-0.2c0.1,0,0.3,0.1,0.4,0.2c0.2,0.1,0.5,0.3,0.7,0.5c0.4,0.4,0.8,0.8,1.2,1.2c0.8,0.8,1.5,1.7,2.2,2.5
												l0,0l0,0c0.3,0.5,0.7,1,0.9,1.5l0.4,0.8l0.3,0.9c0.1,0.3,0.1,0.6,0.2,0.9c0.1,0.3,0.1,0.6,0.1,0.9c0.1,0.6,0,1.2-0.2,1.8
												c-0.3,1.2-0.9,2.3-1.7,3.2c-0.4,0.4-0.9,0.8-1.3,1.2c-0.5,0.4-1,0.7-1.5,1c-2.1,1.2-4.3,2.1-6.6,2.7
												c-1.1,0.3-2.3,0.6-3.5,0.8C182.3,149.8,181.1,150,180,150.1z"/>
										</g>
									</g>
								</g>
							</g>
						</g>
						<path class="st10" d="M207.3,96.5L207.3,96.5c0.4-5.6-0.7-16.1-14-20.7l0,0c-0.9-0.4-1.6-0.5-1.6-0.5
							c-16-0.8-20.8,12.7-22.2,18.8c-6.5,16.9-4.8,31.3-4.8,31.3c-0.6,6.7,11.4,9.2,11.4,9.2c-10.1-9.3,0.2-36.9,1.4-40
							c6-2.6,11.2-6.6,14-9c0.1,0.1,0.1,0.2,0.1,0.2c0,0,1.5,10.1,7.8,13.5l0,0c0,0,1.5,32.8-11.8,38.6c0,0,12.1,1.5,13.8-5
							C201.2,133,208.3,115.3,207.3,96.5z"/>
						<path class="st11" d="M207.3,96.5c0.4-5.6-0.7-16.1-14-20.7c-0.9-0.4-1.6-0.5-1.6-0.5c-16-0.8-20.8,12.7-22.2,18.8
							c-6.5,16.9-4.8,31.3-4.8,31.3c-0.3,3.9,3.6,6.4,6.9,7.8c-1.2-0.5-2.4-4.1-2.8-5.2c-1.6-4.5-1-9.4-0.1-14
							c1.7-8.6,3.2-17.8,8.1-25.2c2.7-4.1,8.6-9.1,13.8-9.1c0.1,0,0.2,0,0.3,0c0.1,0,0.1,0,0.2,0c0.1,0,0.1,0,0.2,0
							c0.1,0,0.1,0,0.2,0c0.1,0,0.1,0,0.2,0c0.1,0,0.3,0.1,0.4,0.1c0.1,0,0.2,0.1,0.3,0.2c0,0,0.1,0,0.1,0.1c0.1,0,0.2,0.1,0.2,0.2
							c0,0,0.1,0.1,0.1,0.1c0.1,0.1,0.1,0.1,0.2,0.2c0,0,0.1,0.1,0.1,0.1c0.1,0.1,0.1,0.1,0.2,0.2c0,0,0.1,0.1,0.1,0.1
							c0.1,0.1,0.1,0.2,0.2,0.3c0,0,0.1,0.1,0.1,0.1c0.1,0.1,0.2,0.2,0.2,0.3c0,0,0,0.1,0.1,0.1c0.1,0.1,0.2,0.2,0.2,0.4
							c0,0,0,0,0,0c0.1,0.1,0.2,0.3,0.3,0.4c0.6,1,1,2.1,1.3,2.8c0.9,2.4,1.4,4.9,2.7,7.2c0.6,1.1,1.5,2.1,2.6,2.8
							c1.2,0.8,2.8,1,4,1.9c0.1,0.1,0.2,0.2,0.3,0.3c0,0,0,0,0,0c0.1,0.1,0.2,0.2,0.2,0.3c0,0,0,0,0,0c0.1,0.1,0.1,0.2,0.2,0.3
							c0,0,0,0,0,0.1c0.1,0.1,0.1,0.3,0.2,0.4c0,0.1,0.1,0.2,0.1,0.4c0,0.1,0,0.2,0,0.2c0,0.1,0,0.1,0,0.2c0,0.1,0,0.2,0,0.3
							c0,0,0,0,0,0.1c0,0.1,0,0.3-0.1,0.4c-0.1,0.6-0.4,1.3-0.6,1.7c-3.4,9.8-1.6,20.7-7.3,29.8c-1.3,2-3.2,3.9-5.4,5
							c-1.1,0.6-2.3,1-3.5,1.3c3.5,0.1,10.7-0.2,11.9-5.1C201.2,133,208.3,115.3,207.3,96.5z"/>
					</g>
					<path class="st2" d="M203.3,72l-9.2-1.5l-0.7-0.1l-9.2-1.5l-7.9,6.7l2.7,10.5c0,0,3-3.4,12.1-1.9v0c0.1,0,0.2,0,0.3,0.1
						c0.1,0,0.2,0,0.3,0.1v0c9,1.6,10.7,5.8,10.7,5.8l6-9L203.3,72z"/>
					<path class="st2" d="M203.3,72l-9.2-1.5l-0.7-0.1l-9.2-1.5l-7.9,6.7l2.7,10.5c0,0,3-3.4,12.1-1.9v0c0.1,0,0.2,0,0.3,0.1
						c0.1,0,0.2,0,0.3,0.1v0c9,1.6,10.7,5.8,10.7,5.8l6-9L203.3,72z"/>
					<path class="st12" d="M202.3,73.3l-9.1-1.5l-0.6-0.1l-7.8-1.3l-6.8,5.8l2.1,7.6c0,0,3.5-2.1,11.2-0.9v0c0.1,0,0.2,0,0.3,0
						c0.1,0,0.2,0,0.3,0.1v0c7.7,1.3,9.9,4.1,9.9,4.1l4.9-6.4L202.3,73.3z"/>
					<g>
						<circle class="st3" cx="192.6" cy="77.3" r="5.2"/>
						<path class="st11" d="M192.3,78.9c-1.7-1.6-2.4-4.5-1.4-6.5c-1.8,0.6-3.2,2.1-3.5,4.1c-0.5,2.8,1.4,5.5,4.3,6
							c2,0.3,3.9-0.5,5-2C195.2,80.5,193.3,79.9,192.3,78.9z"/>
						<polygon class="st2" points="195.6,76.3 193.6,76 193.9,73.9 192.5,73.6 192.1,75.7 190.1,75.4 189.9,76.9 191.9,77.2 
							191.3,80.8 192.7,81 193.3,77.4 195.3,77.8 						"/>
						<path class="st2" d="M192.9,73.1c-1.6,1.4-0.5,4.4,1.4,5.1c0.9,0.3,1.7,0.3,2.3,0.2c0.1-0.2,0.1-0.4,0.2-0.7
							c0.4-2.1-1.1-4.2-3.2-4.5C193.4,73.1,193.2,73.1,192.9,73.1z"/>
					</g>
				</g>
			</g>
			<g>
				
					<rect x="234.4" y="76" transform="matrix(0.9861 0.1663 -0.1663 0.9861 16.834 -43.2995)" class="st1" width="65.2" height="5.7"/>
				
					<rect x="232.4" y="87.7" transform="matrix(0.9861 0.1663 -0.1663 0.9861 18.7521 -42.8159)" class="st1" width="65.2" height="5.7"/>
				
					<rect x="230.5" y="99.4" transform="matrix(0.9861 0.1663 -0.1663 0.9861 20.6661 -42.324)" class="st1" width="65.2" height="5.7"/>
				
					<rect x="228.5" y="111.1" transform="matrix(0.9861 0.1663 -0.1663 0.9861 22.5781 -41.8292)" class="st1" width="65.2" height="5.7"/>
				
					<rect x="226.5" y="122.8" transform="matrix(0.9861 0.1663 -0.1663 0.9861 24.4929 -41.3391)" class="st1" width="65.2" height="5.7"/>
				
					<rect x="224.6" y="134.4" transform="matrix(0.9861 0.1663 -0.1663 0.9861 26.4064 -40.8475)" class="st1" width="65.2" height="5.7"/>
				
					<rect x="222.6" y="146.1" transform="matrix(0.9861 0.1663 -0.1663 0.9861 28.326 -40.3633)" class="st1" width="65.2" height="5.7"/>
				
					<rect x="220.6" y="157.8" transform="matrix(0.9861 0.1663 -0.1663 0.9861 30.2358 -39.8672)" class="st1" width="65.2" height="5.7"/>
			</g>
			<g>
				
					<rect x="145.9" y="163.3" transform="matrix(0.9861 0.1663 -0.1663 0.9861 30.6176 -33.4651)" class="st1" width="138.5" height="5.7"/>
				
					<rect x="144" y="174.9" transform="matrix(0.9861 0.1663 -0.1663 0.9861 32.5326 -32.975)" class="st1" width="138.5" height="5.7"/>
				
					<rect x="142" y="186.6" transform="matrix(0.9861 0.1663 -0.1663 0.9861 34.4486 -32.4858)" class="st1" width="138.5" height="5.7"/>
				
					<rect x="140" y="198.3" transform="matrix(0.9861 0.1663 -0.1663 0.9861 36.3634 -31.9959)" class="st1" width="138.5" height="5.7"/>
				
					<rect x="138.1" y="210" transform="matrix(0.9861 0.1663 -0.1663 0.9861 38.2803 -31.5069)" class="st1" width="138.5" height="5.7"/>
				
					<rect x="136.1" y="221.7" transform="matrix(0.9861 0.1663 -0.1663 0.9861 40.1982 -31.0187)" class="st1" width="138.5" height="5.7"/>
				
					<rect x="134.1" y="233.4" transform="matrix(0.9861 0.1663 -0.1663 0.9861 42.1063 -30.5241)" class="st1" width="138.5" height="5.7"/>
				
					<rect x="132.1" y="245" transform="matrix(0.9861 0.1663 -0.1663 0.9861 44.0203 -30.0337)" class="st1" width="138.5" height="5.7"/>
			</g>
		</g>
	</g>
	<g>
		
			<rect x="145.8" y="117.7" transform="matrix(0.5989 -0.8008 0.8008 0.5989 -58.9467 279.1834)" class="st1" width="206.9" height="161.5"/>
		<g>
			
				<rect x="178.2" y="93.5" transform="matrix(0.8008 0.5989 -0.5989 0.8008 169.5315 -115.83)" class="st2" width="161.5" height="206.9"/>
			<g>
				
					<rect x="225.7" y="93.6" transform="matrix(0.8008 0.5989 -0.5989 0.8008 133.8321 -127.5515)" class="st13" width="66" height="87.6"/>
				<g>
					<g>
						<path class="st5" d="M272.4,142.1c0,0,3.6-1.2,4.2,1c0,0,0.2,1.5-2,3.3c-0.4,0.3-0.8,0.7-1.2,1c-0.3,0.3-0.6,0.6-0.8,0.9
							c-0.3,0.3-0.4,0.7-0.8,1c-0.7,0.5-1.6,1-2.5,1c-0.4,0-0.8-0.1-1.1-0.3c-0.1-0.1-1.1-1-1-1.1L272.4,142.1z"/>
						<path class="st6" d="M271.8,142.8c0,0,2.9-0.9,3.4,0.8c0,0,0.2,1.2-1.6,2.7c-0.3,0.3-0.6,0.5-1,0.8c-0.2,0.2-0.5,0.5-0.7,0.7
							c-0.2,0.3-0.4,0.6-0.6,0.8c-0.6,0.4-1.3,0.8-2,0.8c-0.3,0-0.6-0.1-0.9-0.3c-0.1-0.1-0.9-0.8-0.8-0.9L271.8,142.8z"/>
					</g>
					<g>
						<path class="st5" d="M249.6,125c0,0,0.1-3.8-2.1-3.8c0,0-1.5,0.2-2.6,2.9c-0.2,0.5-0.4,0.9-0.6,1.4c-0.2,0.4-0.4,0.7-0.6,1.1
							c-0.2,0.3-0.6,0.6-0.7,1c-0.3,0.8-0.5,1.8-0.2,2.6c0.1,0.4,0.3,0.7,0.6,1c0.1,0.1,1.2,0.8,1.3,0.6L249.6,125z"/>
						<path class="st6" d="M249,125.8c0,0,0.1-3-1.7-3.1c0,0-1.2,0.2-2.1,2.3c-0.2,0.4-0.3,0.8-0.5,1.1c-0.1,0.3-0.3,0.6-0.5,0.9
							c-0.2,0.3-0.5,0.5-0.6,0.8c-0.3,0.7-0.4,1.4-0.2,2.1c0.1,0.3,0.3,0.6,0.5,0.8c0.1,0.1,1,0.6,1.1,0.5L249,125.8z"/>
					</g>
					<path class="st5" d="M242.6,145.5c0,0-3,6.8-7.8,7.3l16.2,12.1c0,0,0-7.1,5.2-10.2L242.6,145.5z"/>
					<path class="st7" d="M239.8,149.8c0.2,0.9,0.6,1.7,1.2,2.5c1.2,1.9,2.7,3.5,4.8,4.4c2,0.8,4.4,1.1,6.4,0.3
						c1-0.3,1.8-0.9,2.7-1.4c0.4-0.4,0.8-0.7,1.3-1l-13.6-9.1C242.6,145.5,241.6,147.8,239.8,149.8z"/>
					<path class="st5" d="M277,139.6c8.8-9.4,7.4-21.5-0.5-27.5c-8-6-19-3.8-26.2,8.1c-3,5-9.9,13-8.9,19.9c0.7,5,0.3,3,2.2,8.6
						c0,0,1.7,5.6,7.4,6.2c4.9,0,9.4,1.7,14.4-2.1C269.1,150.2,273.9,142.9,277,139.6z"/>
					<path class="st5" d="M261.1,176.6l-10.4-13.8l-6.5-5.6l0,0l-0.1-0.1L244,157l0,0l-7.2-4.7l-16.2-6.1c0,0-9.1-2.4-14.7,6.3
						l26.5,19.8l0.3,0.2l26.5,19.8C266,184.7,261.1,176.6,261.1,176.6z"/>
					<g>
						<path class="st14" d="M264,113.7c0,0-9.4,1-15.3,9c0,0,5.3-17.5,19.3-16.9C268,105.8,263.6,112.6,264,113.7z"/>
						<path class="st14" d="M255.1,116.9c0,0-7.4,8.9-10,15.7l-1.2-2.2l5.7-9.1C249.5,121.3,253.1,116.7,255.1,116.9z"/>
						<path class="st14" d="M279.8,132.4c0,0-7.6,11.7-13.4,16.1l2.5,0.6l7.1-8C276,141,280.5,134.2,279.8,132.4z"/>
					</g>
					<path class="st3" d="M251.1,163.1l10,13.5c0,0,4.9,8.1-1.9,15.9l-26.5-19.8l-0.3-0.2l-26.5-19.8c5.6-8.7,14.7-6.3,14.7-6.3
						l16.2,6.1l4.7,8.3L251.1,163.1z"/>
					<path class="st14" d="M264.5,111.9c0,0-4.5,4.3,12.8,14.5c0,0,3.2,3.9,1.8,7.7l-4.4,7.9c0,0,13.1-7.1,13.4-19.9
						c0,0-0.7-5.4-8-11.8c0,0-7-6.8-15.9-4L264.5,111.9z"/>
					<polygon class="st15" points="238.1,158.2 244.7,163.2 238,168.1 235.2,166 					"/>
					<polygon class="st16" points="235.8,175 238.5,167.4 235.7,165.3 229.6,170.3 					"/>
					<path class="st2" d="M254.3,167l6.9,9.6c0,0,4.9,8.1-1.9,15.9l-26.5-19.8l-0.3-0.2l-26.5-19.8c5.6-8.7,14.7-6.3,14.7-6.3
						l10.9,4.2l-4.6,17.9l5.8,4.3l5.5,4.1L254.3,167z"/>
					<g>
						<polygon class="st17" points="237.5,152.2 241.4,160.7 230.1,162.2 231.5,150.5 						"/>
						<polygon class="st3" points="238.2,151.3 241.4,160.7 230.8,161.2 231.5,150.5 						"/>
					</g>
					<g>
						<polygon class="st17" points="250.6,162.1 241.4,160.7 243.2,172 254,167.3 						"/>
						<polygon class="st3" points="251.4,161.1 241.4,160.7 243.9,171 254,167.3 						"/>
					</g>
					<polygon class="st18" points="231.5,150.5 226.9,168.3 224.1,166.2 223.8,147.5 					"/>
					<polygon class="st18" points="254.3,167 238.2,176.8 241,178.9 259,173.9 					"/>
				</g>
			</g>
			<g>
				
					<rect x="309.2" y="145.7" transform="matrix(0.8008 0.5989 -0.5989 0.8008 157.0528 -175.1605)" class="st1" width="65.2" height="5.7"/>
				
					<rect x="302.1" y="155.2" transform="matrix(0.8008 0.5989 -0.5989 0.8008 161.3255 -169.0238)" class="st1" width="65.2" height="5.7"/>
				
					<rect x="295" y="164.6" transform="matrix(0.8008 0.5989 -0.5989 0.8008 165.5856 -162.8806)" class="st1" width="65.2" height="5.7"/>
				
					<rect x="288" y="174.1" transform="matrix(0.8008 0.5989 -0.5989 0.8008 169.8483 -156.7405)" class="st1" width="65.2" height="5.7"/>
				
					<rect x="280.9" y="183.6" transform="matrix(0.8008 0.5989 -0.5989 0.8008 174.122 -150.6031)" class="st1" width="65.2" height="5.7"/>
				
					<rect x="273.8" y="193.1" transform="matrix(0.8008 0.5989 -0.5989 0.8008 178.3868 -144.4628)" class="st1" width="65.2" height="5.7"/>
				
					<rect x="266.7" y="202.6" transform="matrix(0.8008 0.5989 -0.5989 0.8008 182.6553 -138.3238)" class="st1" width="65.2" height="5.7"/>
				
					<rect x="259.6" y="212.1" transform="matrix(0.8008 0.5989 -0.5989 0.8008 186.9294 -132.1871)" class="st1" width="65.2" height="5.7"/>
			</g>
			<g>
				
					<rect x="186.6" y="199.5" transform="matrix(0.8008 0.5989 -0.5989 0.8008 172.1669 -112.9151)" class="st1" width="138.5" height="5.7"/>
				
					<rect x="179.5" y="209" transform="matrix(0.8008 0.5989 -0.5989 0.8008 176.4297 -106.7762)" class="st1" width="138.5" height="5.7"/>
				
					<rect x="172.4" y="218.5" transform="matrix(0.8008 0.5989 -0.5989 0.8008 180.7072 -100.6387)" class="st1" width="138.5" height="5.7"/>
				
					<rect x="165.3" y="228" transform="matrix(0.8008 0.5989 -0.5989 0.8008 184.976 -94.5002)" class="st1" width="138.5" height="5.7"/>
				
					<rect x="158.2" y="237.5" transform="matrix(0.8008 0.5989 -0.5989 0.8008 189.2456 -88.3609)" class="st1" width="138.5" height="5.7"/>
				
					<rect x="151.1" y="247" transform="matrix(0.8008 0.5989 -0.5989 0.8008 193.5119 -82.2217)" class="st1" width="138.5" height="5.7"/>
				
					<rect x="144" y="256.4" transform="matrix(0.8008 0.5989 -0.5989 0.8008 197.7782 -76.0831)" class="st1" width="138.5" height="5.7"/>
				
					<rect x="136.9" y="265.9" transform="matrix(0.8008 0.5989 -0.5989 0.8008 202.0533 -69.9447)" class="st1" width="138.5" height="5.7"/>
			</g>
		</g>
	</g>
	<g>
		<path class="st1" d="M239.6,332.8c0.7,3.7-1.6,7.3-5.3,8l-110.1,22.4c-3.7,0.7-7.3-1.6-8-5.3L75.9,159.5c-0.7-3.7,1.6-7.3,5.3-8
			l110.1-22.4c3.7-0.7,7.3,1.6,8,5.3L239.6,332.8z"/>
		<path class="st19" d="M234.3,331.2c0.7,3.7-1.6,7.3-5.3,8l-110.1,22.4c-3.7,0.7-7.3-1.6-8-5.3L70.5,157.9c-0.7-3.7,1.6-7.3,5.3-8
			l110.1-22.4c3.7-0.7,7.3,1.6,8,5.3L234.3,331.2z"/>
		
			<rect x="97.2" y="152.9" transform="matrix(0.9799 -0.1994 0.1994 0.9799 -45.005 35.0752)" class="st13" width="109" height="176.3"/>
		<polygon class="st1" points="80.7,165.5 115.8,338.2 222.6,316.5 		"/>
		<path class="st2" d="M147.9,142.5c0.3,1.3-0.6,2.5-1.8,2.8l-26.6,5.4c-1.3,0.3-2.5-0.6-2.8-1.8l0,0c-0.3-1.3,0.6-2.5,1.8-2.7
			l26.6-5.4C146.4,140.5,147.6,141.3,147.9,142.5L147.9,142.5z"/>
		<path class="st2" d="M188.3,334.9c0.4,2.1-0.9,4.1-3,4.5l-26.2,5.3c-2.1,0.4-4.1-0.9-4.5-3l0,0c-0.4-2.1,0.9-4.1,3-4.5l26.2-5.3
			C185.9,331.5,187.9,332.8,188.3,334.9L188.3,334.9z"/>
		<g>
			<circle class="st2" cx="137.2" cy="345.3" r="5.3"/>
			<path class="st2" d="M210.9,330.3c0.6,2.9-1.3,5.7-4.1,6.2c-2.9,0.6-5.7-1.3-6.3-4.1c-0.6-2.9,1.3-5.7,4.1-6.3
				C207.6,325.6,210.4,327.4,210.9,330.3z"/>
		</g>
	</g>
	<g class="st20">
		<g class="st21">
			<path class="st22" d="M109.2,201.3c-20.6-4.1-28.3,14-29.7,17.7c-1.3-3.7-9-21.8-29.7-17.7c-14.2,2.8-19.3,18.1-16.3,30.9
				c1,4.4,2.6,9.2,4.7,13.2c0,0,15.9,30,41.2,43c25.4-13,41.3-43,41.3-43c2.1-4,3.7-8.8,4.7-13.2
				C128.5,219.4,123.4,204.1,109.2,201.3z"/>
			<path class="st1" d="M114.7,203.2c2.6,4.5,4.1,9.3,4.4,14.5c0.9,14.7-4.2,32.5-17.3,40.8c-9.2,6-20.8,6.3-30.2,0.5
				c-4.9-3-11.3-8.2-14.2-13.2c-3.5-6-7.6-16.2-7.1-23.2c0.4-5.8,3.7-14.8,8.4-18.6c1.2-1,2.5-1.8,3.9-2.4
				c-3.6-1.1-7.8-1.4-12.7-0.4c-14.2,2.8-19.3,18.1-16.3,30.9c1,4.4,2.6,9.2,4.7,13.2c0,0,15.9,30,41.2,43c25.4-13,41.3-43,41.3-43
				c2.1-4,3.7-8.8,4.7-13.2C128.1,221.2,124.7,208.4,114.7,203.2z"/>
		</g>
		<polyline class="st23" points="19.8,235.7 67.4,235.7 72.3,255.4 79.5,222.5 85.6,269.1 96.8,234.7 152.8,234.7 		"/>
	</g>
</g>
<g>
	<path class="st1" d="M299.6,396.4c0,3.5-15.9,6.3-35.5,6.3c-19.6,0-35.5-2.8-35.5-6.3c0-3.5,15.9-6.3,35.5-6.3
		C283.7,390.1,299.6,392.9,299.6,396.4z"/>
	<g>
		<g>
			<path class="st24" d="M265.9,397.6c-1.3,0-2.3-0.1-2.8-0.1c-9,0.2-16.1-2.3-21.1-7.3c-7.5-7.5-7.5-18.1-7.5-19v-57h6.2v57.1
				c0,0.1-0.1,8.8,5.7,14.6c3.8,3.8,9.5,5.6,16.8,5.5l0.2,0l0.2,0c0.1,0,9.2,1.1,15.2-4.1c3.6-3.1,5.5-8,5.6-14.5V316
				c0-1-0.3-7.8,2-14.9c3.4-10.5,10.7-16.5,20.9-17.5c0.5-0.1,12.8-1.2,21.7,6.6c5.5,4.8,8.4,11.7,8.7,20.7l0,0.1v26.3h-6.2V311
				c-0.2-7.2-2.5-12.6-6.6-16.2c-6.9-6-16.9-5.1-17-5.1c-18.6,1.7-17.4,24.9-17.3,25.9l0,0.2l0,56.9c-0.1,8.4-2.8,14.8-7.8,19.1
				C277.2,396.8,270,397.6,265.9,397.6z"/>
		</g>
		<g>
			<path class="st25" d="M292.2,303.7c-2,5.9-1.7,11.9-1.7,12.3l0,0.2V370c-0.1,7.9-2.6,14-7.4,18.1c-5.4,4.6-12.3,5.4-16.1,5.4
				c-1.3,0-2.2-0.1-2.6-0.1c-8.5,0.2-15.2-2.2-20-6.9c-7.1-7.1-7.1-17.1-7.1-18v-53.9h3.4v-0.4h-6.2v57c0,0.9,0,11.5,7.5,19
				c5,5,12.1,7.5,21.1,7.3c0.5,0,1.4,0.1,2.8,0.1c4,0,11.3-0.8,17-5.7c5-4.3,7.7-10.7,7.8-19.1l0-56.9l0-0.2
				C290.7,315.2,290.4,309.6,292.2,303.7z"/>
			<path class="st25" d="M337.8,310.9c-0.3-9-3.2-16-8.7-20.7c-8.9-7.8-21.2-6.6-21.7-6.6c-10.3,0.9-17.5,7-20.9,17.5
				c-2.3,7.1-2.1,13.9-2,14.9v55.8c0-0.6,0.1-1.2,0.1-1.8v-53.7c0-0.9-0.3-7.4,1.9-14.1c3.2-9.9,10.1-15.6,19.8-16.5
				c0.5,0,12.1-1.1,20.5,6.2c5.2,4.5,7.9,11.1,8.2,19.6v0.1v24.9h-3.4v0.8h6.2V311L337.8,310.9z"/>
		</g>
		<path class="st26" d="M204.5,257.7"/>
		<g>
			<g>
				<path class="st1" d="M202.3,256.8c0-0.4-0.8-8.7,1.3-17.9c2.9-12.5,9.8-20.5,20.1-23l1,4c-21,5.1-18.3,36.1-18.3,36.4
					L202.3,256.8z"/>
			</g>
			<path class="st17" d="M206,239.7c2.7-11.7,8.9-19.4,18-22.4l-0.3-1.4c-10.2,2.5-17.2,10.4-20.1,23c-2.1,9.2-1.4,17.5-1.3,17.9
				l2.3-0.2C204.4,254,204.2,247.2,206,239.7z"/>
			<g>
				<path class="st27" d="M233.5,217.9c0.3,1.2-0.5,2.4-1.7,2.7l-9.8,2.2c-1.2,0.3-2.4-0.5-2.7-1.7l-0.8-3.7
					c-0.3-1.2,0.5-2.4,1.7-2.7l9.8-2.2c1.2-0.3,2.4,0.5,2.7,1.7L233.5,217.9z"/>
				<path class="st2" d="M227.6,217.3c1,0.5,2.2,0.4,3.2-0.2c0.2-0.1,0.3-0.2,0.5-0.3l-0.4-1.6c-0.1-0.5-0.7-0.9-1.2-0.8l-3.8,0.9
					C226.2,216.1,226.8,216.9,227.6,217.3z"/>
				<path class="st28" d="M230.8,220.5c-4.2,1.1-9.5-1.6-10.3-5.7l-0.2,0c-1.2,0.3-2,1.5-1.7,2.7l0.8,3.7c0.3,1.2,1.5,2,2.7,1.7
					l9.8-2.2c0.7-0.2,1.3-0.7,1.6-1.3C232.6,219.8,231.7,220.2,230.8,220.5z"/>
			</g>
		</g>
		<g>
			<g>
				<path class="st1" d="M274.9,256.8c0-0.4,0.8-8.7-1.3-17.9c-2.9-12.5-9.9-20.5-20.1-23l-1,4c21,5.1,18.3,36.1,18.3,36.4
					L274.9,256.8z"/>
			</g>
			<path class="st17" d="M271.2,239.7c-2.7-11.7-8.9-19.4-18-22.4l0.3-1.4c10.2,2.5,17.2,10.4,20.1,23c2.1,9.2,1.4,17.5,1.3,17.9
				l-2.3-0.2C272.7,254,272.9,247.2,271.2,239.7z"/>
			<g>
				<path class="st27" d="M243.6,217.9c-0.3,1.2,0.5,2.4,1.7,2.7l9.8,2.2c1.2,0.3,2.4-0.5,2.7-1.7l0.8-3.7c0.3-1.2-0.5-2.4-1.7-2.7
					l-9.8-2.2c-1.2-0.3-2.4,0.5-2.7,1.7L243.6,217.9z"/>
				<path class="st2" d="M249.5,217.3c-1,0.5-2.2,0.4-3.2-0.2c-0.2-0.1-0.3-0.2-0.5-0.3l0.4-1.6c0.1-0.5,0.7-0.9,1.2-0.8l3.8,0.9
					C251,216.1,250.3,216.9,249.5,217.3z"/>
				<path class="st28" d="M246.3,220.5c4.2,1.1,9.5-1.6,10.3-5.7l0.2,0c1.2,0.3,2,1.5,1.7,2.7l-0.8,3.7c-0.3,1.2-1.5,2-2.7,1.7
					l-9.8-2.2c-0.7-0.2-1.3-0.7-1.6-1.3C244.5,219.8,245.4,220.2,246.3,220.5z"/>
			</g>
		</g>
		<g>
			<path class="st27" d="M240.1,315.7c-12.8,0-22.9-3.6-30.2-10.7c-10.7-10.4-10.8-24.5-10.8-25.1v-23.8h10.6v23.8
				c0,0.1,0.2,10.3,7.7,17.6c5.4,5.3,13.6,7.8,24.1,7.5l0.1,0c0,0,6.7-0.2,13.2-3.6c8.2-4.3,12.5-11.9,12.8-22.5v-22.9h10.6v23.1
				c-0.5,18.6-10.6,27.6-18.9,31.8c-8.5,4.3-16.8,4.6-17.6,4.6C241.2,315.7,240.7,315.7,240.1,315.7z"/>
		</g>
		<path class="st17" d="M272.6,256.1v22.7c-0.5,16.2-9.2,24.1-16.5,27.8c-7.4,3.8-14.6,4-15.4,4c-0.5,0-1,0-1.4,0
			c-11.2,0-20-3.1-26.3-9.3c-9.3-9.1-9.4-21.3-9.4-21.9v-23.3h-4.4v23.8c0,0.6,0.1,14.7,10.8,25.1c7.3,7.1,17.4,10.7,30.2,10.7
			c0.5,0,1.1,0,1.7,0c0.8,0,9.2-0.3,17.6-4.6c8.3-4.3,18.3-13.2,18.9-31.8v-23.1H272.6z"/>
		<circle class="st29" cx="334.1" cy="339.5" r="15.6"/>
		<circle class="st1" cx="334.1" cy="339.5" r="12.4"/>
		<circle class="st30" cx="334.1" cy="339.5" r="8.4"/>
	</g>
</g>
</svg>
