<svg xmlns="http://www.w3.org/2000/svg" width="256" height="256" viewBox="0 0 256 256" id="success-individual-2-large" data-supported-dps="256x256">
  <path d="M128 0a128 128 0 01128 128H0A128 128 0 01128 0z" fill="#fbf1e2"/>
  <path d="M185.08 101.24l-8.49-4.71c-1.26-3.53-8.76-12.39-8.66-8.29.07 2.64 5 4.23-2.66 1.75-.9-2.87-4.7.62-2.42 1.86-.35.59 0 1.13.48 1.51-1.24 3.44 3 7 6 7.74 2.37.81 9.17 4.48 11.73 5.37z" fill="#955646"/>
  <path fill="#c0d1e2" d="M239.72 222.26l3.69 5.09-11.47 4.35-3.54-7.18 11.32-2.26z"/>
  <path d="M217.83 243l28.45-8.64a12 12 0 00-4.21-10c-6.72 1.91-5.3 6.42-12.2 3.7-1.74 11.8-11.62 6.03-12.04 14.94z" fill="#0d2135"/>
  <path fill="#c0d1e2" d="M222.13 240.5l2.85 8.54-12.99-.22-.89-7.51 11.03-.81z"/>
  <path d="M193 256l32.46-.15s1.27-1.22 1.2-4.16c-.06-2.69-2.38-6.63-2.38-6.63-7-.08-6.92 4.64-12.75.07-4.09 9.37-18.28.43-18.53 10.87z" fill="#0d2135"/>
  <path fill="#38434f" d="M216.97 170.86l22.75 51.49-21.51 7.68-20.19-45.41 18.95-13.76z"/>
  <path d="M206 142l-14.68 34.42A29.6 29.6 0 00190 195l10 47h22.53l-10.24-56.16 28.72-29.73C249 146 246 141 246 141z" fill="#56687a"/>
  <path d="M221.86 79.09c-1.84-2-6.64-8.4-4.25-12.76 11.51-20.3-24.28-30.43-26-7.91-.3 2.93-1.68 4.47-1.66 5.8 0 1.49 2 1.12 1.89 3.68 0 4.55.24 4.71 4.87 6.26s4.13 10.52 4.13 10.52z" fill="#955646"/>
  <path d="M205.31 44.31c-7.14 0-12.5 2.35-14.39 7.76 4.13 2 6.89-2.2 12.18-2.19 0 0-4.28 3.74-4.1 8.12v6h2l.89-3c.92-3.9 6.69-4.46 7.2-.09-.11 4.25 4.12 9.77 7.8 9 2.5-2.84 4.2-9.06 4.23-12.8-.12-7.85-8.03-12.8-15.81-12.8z" fill="#c0d1e2"/>
  <path fill="#e8f3ff" d="M181.86 94.36l-3.5-2.28-6.72 10.41 3.53 2.02 6.69-10.15zM218.68 72.83l-19.26 8.61c-.67 5.26-.76 33.55-.76 33.55 19.51-25.08 26.22-32.24 26.22-32.24-3.44-3.46-4.22-6.71-4.29-8.73a1.36 1.36 0 00-1.91-1.19z"/>
  <path d="M220.85 76.32c-11.65 3.82-20.13 7-21.14 18.7l-.85 7.92-16.34-9.54-8.9 11.6 27.48 15.29L205 144h39.84a2.41 2.41 0 002.39-2.22c1.41-15.93-2.62-28.53-11.07-45.37-8.87-17.67-12.07-16.49-15.31-20.09z" fill="#b9af9f"/>
  <path d="M191.77 109l-2.52 3.91c-1.26.39-16.44 5.2-17.13 5.32-5.19 1.57-6.28-.79-9.32-1.4l-7.4-1.43a.51.51 0 00-.6.53 1.24 1.24 0 00.72 1.24 19.47 19.47 0 004.52 1.24s-6.45 1.37-9 1.88-2.36 2.31-2.36 2.31c-1.57.57-.87 2.08.24 2.26 0 1.29 4 2.3 4 2.3l4.81 1c3 .9 9.7-2.3 12.8-3.11l5.18-.48 16.77-1.12a16.05 16.05 0 008.24-2.91l3.69-2.59z" fill="#955646"/>
  <path fill="#e8f3ff" d="M171.33 116.11l-3.04.65 2.17 11.62 3.69-.74-2.82-11.53z"/>
  <path d="M170.83 115.09c1.19 0 27.7-9.53 27.7-9.53l13.2-18.2a11.53 11.53 0 019.35-5.06c2.34 0 7.3 2.22 8.34 6.12.6 2.25.3 7-2 9.7l-14.25 17.51a21.1 21.1 0 01-11.73 7.26l-27.63 6.2z" fill="#ccc1b0"/>
  <path d="M203.73 77.55a35.16 35.16 0 00-4 2.12 1.59 1.59 0 10-.36 3.16 39.19 39.19 0 003.69 3.17.4.4 0 00.65-.27l.59-7.8a.39.39 0 00-.57-.38z" fill="#cc5236"/>
  <path fill="#e7a33e" d="M161 78h6v14h-6z"/>
  <path d="M163.83 89.21c-3.25 0-6.08 1.12-7.59 2.79h15.21c-1.54-1.67-4.37-2.79-7.62-2.79z" fill="#f8c77e"/>
  <path d="M156.19 92h15.63a1.19 1.19 0 011.18 1.19V96h-18v-2.81a1.19 1.19 0 011.19-1.19z" fill="#e7a33e"/>
  <path d="M183.34 55.07a4.2 4.2 0 00-4.34-.52V50h-30v4.58c-3.91-1.94-7.91 3-5.15 6.43l8 10.24c4.56 9.93 20.16 9.72 24.47-.32l7.75-9.93a4.25 4.25 0 00-.73-5.93zm-37.91 4.71a2.24 2.24 0 113.57-2.69 34.55 34.55 0 00.69 8.15zm37.06 0l-4.16 5.32A34.1 34.1 0 00179 57a2.23 2.23 0 013.49 2.78z" fill="#f8c77e"/>
  <path fill="#493d57" d="M162.87 60.6h5.88l5.48 16.85-3.01 5.59-8.35-22.44z"/>
  <path fill="#493d57" d="M164.36 60.6h-5.88L153 77.45l3.01 5.59 8.35-22.44z"/>
  <path d="M173.91 57.82a3.74 3.74 0 000-5.27 3.73 3.73 0 01-1.09-2.64 3.73 3.73 0 00-3.73-3.73 3.73 3.73 0 01-2.64-1.09 3.74 3.74 0 00-5.27 0 3.73 3.73 0 01-2.64 1.09 3.73 3.73 0 00-3.72 3.73 3.74 3.74 0 01-1.1 2.64 3.74 3.74 0 000 5.27 3.74 3.74 0 011.1 2.64 3.73 3.73 0 003.72 3.72 3.74 3.74 0 012.64 1.1 3.74 3.74 0 005.27 0 3.74 3.74 0 012.64-1.1 3.73 3.73 0 003.73-3.72 3.73 3.73 0 011.09-2.64z" fill="#9983b1"/>
  <path d="M163.79 49.18c-7.91.2-7.91 11.8 0 12 7.92-.18 7.92-11.8 0-12z" fill="#715e86"/>
  <path d="M163.79 49.18c7.92.2 7.92 11.8 0 12-7.91-.2-7.91-11.8 0-12m0-1.5c-9.89.26-9.88 14.74 0 15 9.89-.26 9.89-14.74 0-15z" fill="#fdfaf5"/>
  <path d="M130.23 158.64s18.15-13.88 21.19-14.82c5.76-1.78 7.16 4.36 7.16 4.36l9.74 32.6a6.42 6.42 0 01-5.47-1.64 8.57 8.57 0 01-2.5-3.58l-8.35-23.1s-7.39 15.31-13 18.59c-3.94 2.32-7.34-2.87-7.34-2.87l-1.5-9.54zM58.9 186.92l10.28-3.46s22.37 3.74 25.33 5.54c5.61 3.33 1.45 9.19 1.45 9.19l-20.2 30.89s-2.45-1.31-2.33-5.87c.09-3.25 2.75-7.84 2.75-7.84l10.73-16.86s-4.45-8.51-20.48 6.19c-10 9.19-7.53-17.78-7.53-17.78z" fill="#94502c"/>
  <path d="M113.21 107.19c-4.55 3.69-12.6 5-13.41 5.32-1.19.42-.67 1-.16 1.48.71 3.9 13.56 2.05 19.25-2 0 0-.63 1.92-7.79 5a19.32 19.32 0 01-5.37 1.61c-.12 3.82 11.44.57 11.69.92 4.67 3.69-.53 15.91-2.41 19.7-8.83 18.31-44.86 19-58.17 32.43C44.19 188.86 55 210 48.72 224c-2.69 6-13.09 19.43-5.66 23.79 6.57-12.45 21.47-36.58 30.47-49.29 7.07-12.1 5.37-13.2 9.32-17.86 8.24-10.5 33.21 7.43 51.69 9.47l31 21.6c2.49 1.85 8.75 3.17 10.64.14-.27.44-50.2-37.71-39-36.42a6 6 0 005.73 4.28c-2.62-4.21-1.64-3.92-1.65-8.48 0-3.35-5.34-8.51-3.45-9.73 2.69-1.74 4.07 5.24 4.07 5.24 2.38-2.42 1.33-9.91-1.5-13.05.87-4 3.92.59 3.77 1.6 0 0 1.39-4.48-2.56-14.59-1.38-3.53-6.78-9.28-5.52-10.3 1.69-1.36 3.54 3.24 3.54 3.24 2.86-4.06-7.06-14.22-7.49-17.49.88 1.89 7.16 2.33 7.72.85-4.28-.33-.1-10.73-3.7-12.2a4.94 4.94 0 00-5.64.4c-2.91-5.52-14.19-2.67-17.29 1.99z" fill="#ba6438"/>
  <path d="M121.82 143.41a19.7 19.7 0 01-7.62-1.27 1.1 1.1 0 11.88-2c4.46 1.95 13.71 1 19-1.15 2-.83 3.42-1.8 3.77-2.67a1.1 1.1 0 112 .83c-.59 1.48-2.27 2.78-5 3.89a37.07 37.07 0 01-13.03 2.37z" fill="#fce2ba"/>
  <path d="M113.64 141.86c-13.49-3.5-20.85-11.66-20.73-23 .2-17.79 19-39.64 37.86-44.11l.51 2.15c-17.73 4.19-36 25.38-36.16 42-.11 10.35 6.48 17.56 19.08 20.82z" fill="#fce2ba"/>
  <path d="M140.37 73.85c-7.53-4.45-50 2.63-56.83 1.83l3.57 12.2S114.57 80 121 77.06a3.21 3.21 0 012.33.32c5.91 3.37 5.29 1.48 9.33 3.53 3.21-.43.35-2.74-1.21-3.11a1.41 1.41 0 01-.06-1.63l1.9-.85 4.2 2.5a.63.63 0 00.69-1L135.76 75c2.22 0 4.4.35 4.33.59 1.22.21 1.18-1.21.28-1.74z" fill="#d8a27b"/>
  <path fill="#313166" d="M103.32 83.38l-2.72-9.64-43.56 4.5 2.81 18.27 43.47-13.13z"/>
  <path d="M101.93 85.75l5-3.28-1.18-9.3-8.56.45L99 84.26a2 2 0 002.93 1.49z" fill="#e8f3ff"/>
  <path d="M84.88 56.2c0-.29.09-.59.14-.91 2.16-15.69-22.37-20-25.59-4.32-1.09 9.27 7 19.44-6.06 24.33.35 11.09 23.14 13.7 26.77 17.51.08-3-11.15-21.48-1.85-23.48 3.73-.47 3.73-.47 4.56-4.59.37-2.33 2.11-1.62 2.41-3s-.68-2.82-.38-5.54z" fill="#d8a27b"/>
  <path d="M74.49 205.48c2.81 5.34 6.87 11.67 9.66 17 2.36 4.53 2.74 5 3.64 10.2.39 2.25-2.55 4.88-.35 9.28 1.77 3.53 6.12 2.07 9.94 4.86 12.25 9 16.9 5.59 17.65 3.72.94-2.35-3.31-3.14-11.09-11.52a35.77 35.77 0 01-7.18-9.8C92.86 221.73 85 182.3 85 182.3l-16.15-.05S70 197 74.49 205.48M63.47 182.62S32 218.24 25.05 225.73c-5.17 5.62-15.8 20.81-15.8 20.81l-4-4.89 11.13-23.41s9.54-13 12.82-21.22c4.11-10.28 10.29-14.4 10.29-14.4z" fill="#e8ae83"/>
  <path d="M9.08 239.87c1-3.7 2.6-7.92 4.5-13.33.94-2.65 2.86-7.9 3.41-9.28-2-.42-5.93-2.07-8.39 2.25-1.29 2.26-.58 7.2-1.4 11.2-.75 3.64-3.21 9-4.81 14.73-.83 3-.25 5.24.84 6.17.84.66 2 .52 3.1-.7 1.35-1.71 2.44-3.24 3.67-4.91-1.33-.32-2-1.95-.92-6.13zM106.89 246.8c-5.27-.81-15.25-12.31-19.2-13.05-3.66 4-4.37 8.49-.19 10 11.77 4.15 14.29 9.14 22.06 9.92 3.42.34 6.93-1.14 7.41-2.77.41-1.44-3-3-5.75-5.15-.46.6-1.8 1.45-4.33 1.05z" fill="#171738"/>
  <path d="M34.86 98.86S11.71 130.07 10 132.61c-1.38 2-5.32 6.15-6.73 12.92a.88.88 0 00.71 1.05c-.28 1.54 1.36 1.77 1.52.2.66-.07 1-1.17 1-1.17a20 20 0 01.84-2.07l.26 2.66a.63.63 0 001.25-.06v-4.84c0-.05 1.71-1.22 1.77-1.27a.9.9 0 011.3.94l-.39 2.59a.94.94 0 001.84.36c.17-.89.45-2.27.64-3.09.3-1.29 1.89-2.21 1.74-7l.08-.53a2.82 2.82 0 01.92-1.69c5.86-3.94 26.69-23.36 26.69-23.36z" fill="#d8a27b"/>
  <path d="M37.68 184S35 162 35 149.4s4-19.4 4-19.4h34l13.69 52.79a1 1 0 01-.94 1.21z" fill="#171738"/>
  <path d="M53.23 76.57c-10.92 4.33-25 32.18-25 32.27l8.29 7.16 8.34-8.92-7.42 24.44a1.12 1.12 0 001.07 1.48h33.61a1.87 1.87 0 001.88-1.85c0-2.89.35-8.56 2-12.54 2.15-5.13 8.16-9.93 6.93-18.7a17.33 17.33 0 00-3-7.59L61.05 72.91s-3.94 2.09-7.82 3.66" fill="#313166"/>
  <path d="M62.94 70l17.78 22.7a8.91 8.91 0 012.07 3.23 8.06 8.06 0 010 3.71s-4.91-2.06-7.28-4.3a11.61 11.61 0 01-3-5.39 30 30 0 01-9.6-6c-6.59-5.77-3.58-10.83-3.58-10.83L62.94 70zM30.86 103.93l-5.16 7.19 8.9 7.11 6.06-6.35-9.8-7.95z" fill="#e8f3ff"/>
  <path d="M85.31 42.19A10.09 10.09 0 0075 40a20.86 20.86 0 00-3 0c-4.3.09-6.76 1-9.91 3.59-2.63 2.18-5 6.81-5.88 11.07-1.2 6-7.85 4.78-10.09 12.48-1.68 5.8 1.83 11.29 9.1 12.44 9.14 1.44 13.56-3.45 14.83-8 1.06-3.83-.17-9.66-1-11.61-1.33-3.13.56-5.48 3.23-5.62a20.2 20.2 0 007.31-1.72 10.71 10.71 0 003.18-2c3.38 1.11 6.84 1 10.35-4.48.02.01-2.97 1.19-7.81-3.96z" fill="#61382d"/>
  <path fill="#e7a33e" d="M33.63 113.26l-5.76-4.79 5.03-7.84 6.62 5.35-5.89 7.28z"/>
</svg>
